<svg width="1440" height="1173" viewBox="0 0 1440 1173" fill="none" xmlns="http://www.w3.org/2000/svg">
<path fill-rule="evenodd" clip-rule="evenodd" d="M1440 702.057V38.9276C1373.54 2.04931 1286.26 -20.7915 1196 27.3318C1113.79 71.1613 1115.08 137.624 1116.42 206.73C1118.15 296.082 1119.97 389.853 941.5 444.832C764.668 499.306 719.255 589.991 682.914 662.558C654.21 719.874 631.167 765.889 553.5 773.832C471.287 782.24 392.069 767.116 317.338 752.848C198.12 730.087 90.3203 709.506 0 790.123V855.867V914V1115.17C47.9225 1124.98 85.6038 1135.89 119.02 1145.56C251.968 1184.05 317.412 1203 691.716 1055.5C807.384 1009.92 933.021 1014.78 1058.56 1019.64C1189.16 1024.7 1319.66 1029.75 1438.72 978C1439.15 977.813 1439.57 977.625 1440 977.436V914V702.057Z" fill="url(#paint0_linear_21_74)"/>
<defs>
<linearGradient id="paint0_linear_21_74" x1="1440" y1="6.27512e-05" x2="-38.6287" y2="1122.1" gradientUnits="userSpaceOnUse">
<stop stop-color="#1397F1"/>
<stop offset="1" stop-color="#EA314D"/>
</linearGradient>
</defs>
</svg>
